<mxfile host="65bd71144e">
    <diagram name="Page-1" id="0uHXvQXZobljOzGVFPQb">
        <mxGraphModel dx="1083" dy="354" grid="1" gridSize="10" guides="1" tooltips="1" connect="1" arrows="1" fold="1" page="1" pageScale="1" pageWidth="850" pageHeight="1100" math="0" shadow="0">
            <root>
                <mxCell id="0"/>
                <mxCell id="1" parent="0"/>
                <mxCell id="ZAoUQ8ObvNrSKgbO1jp7-27" value="Node" style="rounded=0;whiteSpace=wrap;html=1;verticalAlign=top;fillColor=#f5f5f5;fontColor=#333333;strokeColor=#666666;" parent="1" vertex="1">
                    <mxGeometry x="125" y="330" width="600" height="440" as="geometry"/>
                </mxCell>
                <mxCell id="ZAoUQ8ObvNrSKgbO1jp7-1" value="Client Pod" style="rounded=0;whiteSpace=wrap;html=1;verticalAlign=top;fillColor=#fff2cc;strokeColor=#d6b656;" parent="1" vertex="1">
                    <mxGeometry x="145" y="360" width="250" height="190" as="geometry"/>
                </mxCell>
                <mxCell id="ZAoUQ8ObvNrSKgbO1jp7-21" style="edgeStyle=orthogonalEdgeStyle;rounded=0;orthogonalLoop=1;jettySize=auto;html=1;exitX=0.5;exitY=1;exitDx=0;exitDy=0;endArrow=diamond;endFill=1;" parent="1" source="ZAoUQ8ObvNrSKgbO1jp7-3" edge="1">
                    <mxGeometry relative="1" as="geometry">
                        <mxPoint x="205" y="590" as="targetPoint"/>
                    </mxGeometry>
                </mxCell>
                <mxCell id="ZAoUQ8ObvNrSKgbO1jp7-3" value="Primary CNI plugin&lt;br&gt;&lt;br&gt;eth0" style="rounded=0;whiteSpace=wrap;html=1;fillColor=#d5e8d4;strokeColor=#82b366;" parent="1" vertex="1">
                    <mxGeometry x="155" y="490" width="100" height="60" as="geometry"/>
                </mxCell>
                <mxCell id="ZAoUQ8ObvNrSKgbO1jp7-4" value="Bridge CNI plugin&lt;div&gt;&lt;font color=&quot;#000000&quot;&gt;&lt;br&gt;&lt;/font&gt;192.168.50.2/24&lt;br&gt;veth: net1&lt;/div&gt;" style="rounded=0;whiteSpace=wrap;html=1;fillColor=#f8cecc;strokeColor=#b85450;" parent="1" vertex="1">
                    <mxGeometry x="285" y="490" width="100" height="60" as="geometry"/>
                </mxCell>
                <mxCell id="ZAoUQ8ObvNrSKgbO1jp7-5" value="Container" style="rounded=0;whiteSpace=wrap;html=1;fillColor=#e1d5e7;strokeColor=#9673a6;" parent="1" vertex="1">
                    <mxGeometry x="155" y="390" width="230" height="60" as="geometry"/>
                </mxCell>
                <mxCell id="ZAoUQ8ObvNrSKgbO1jp7-6" style="edgeStyle=orthogonalEdgeStyle;rounded=0;orthogonalLoop=1;jettySize=auto;html=1;exitX=0.5;exitY=1;exitDx=0;exitDy=0;entryX=0.5;entryY=0;entryDx=0;entryDy=0;endArrow=oval;endFill=1;startArrow=oval;startFill=1;" parent="1" source="ZAoUQ8ObvNrSKgbO1jp7-5" target="ZAoUQ8ObvNrSKgbO1jp7-3" edge="1">
                    <mxGeometry relative="1" as="geometry"/>
                </mxCell>
                <mxCell id="ZAoUQ8ObvNrSKgbO1jp7-7" style="edgeStyle=orthogonalEdgeStyle;rounded=0;orthogonalLoop=1;jettySize=auto;html=1;exitX=0.5;exitY=1;exitDx=0;exitDy=0;entryX=0.5;entryY=0;entryDx=0;entryDy=0;endArrow=oval;endFill=1;" parent="1" source="ZAoUQ8ObvNrSKgbO1jp7-5" target="ZAoUQ8ObvNrSKgbO1jp7-4" edge="1">
                    <mxGeometry relative="1" as="geometry"/>
                </mxCell>
                <mxCell id="ZAoUQ8ObvNrSKgbO1jp7-8" value="Router Pod" style="rounded=0;whiteSpace=wrap;html=1;verticalAlign=top;fillColor=#fff2cc;strokeColor=#d6b656;" parent="1" vertex="1">
                    <mxGeometry x="455" y="360" width="250" height="190" as="geometry"/>
                </mxCell>
                <mxCell id="ZAoUQ8ObvNrSKgbO1jp7-18" style="edgeStyle=orthogonalEdgeStyle;rounded=0;orthogonalLoop=1;jettySize=auto;html=1;exitX=0.5;exitY=1;exitDx=0;exitDy=0;endArrow=diamond;endFill=1;" parent="1" source="ZAoUQ8ObvNrSKgbO1jp7-9" edge="1">
                    <mxGeometry relative="1" as="geometry">
                        <mxPoint x="514.8571428571429" y="590" as="targetPoint"/>
                    </mxGeometry>
                </mxCell>
                <mxCell id="ZAoUQ8ObvNrSKgbO1jp7-9" value="Primary CNI plugin&lt;br&gt;&lt;br&gt;eth0" style="rounded=0;whiteSpace=wrap;html=1;fillColor=#d5e8d4;strokeColor=#82b366;" parent="1" vertex="1">
                    <mxGeometry x="465" y="490" width="100" height="60" as="geometry"/>
                </mxCell>
                <mxCell id="ZAoUQ8ObvNrSKgbO1jp7-10" value="Bridge CNI plugin&lt;div&gt;&lt;font color=&quot;#000000&quot;&gt;&lt;br&gt;&lt;/font&gt;192.168.50.1/24&lt;br&gt;veth: net1&lt;/div&gt;" style="rounded=0;whiteSpace=wrap;html=1;fillColor=#f8cecc;strokeColor=#b85450;" parent="1" vertex="1">
                    <mxGeometry x="595" y="490" width="100" height="60" as="geometry"/>
                </mxCell>
                <mxCell id="ZAoUQ8ObvNrSKgbO1jp7-11" value="Container" style="rounded=0;whiteSpace=wrap;html=1;fillColor=#e1d5e7;strokeColor=#9673a6;" parent="1" vertex="1">
                    <mxGeometry x="465" y="390" width="230" height="60" as="geometry"/>
                </mxCell>
                <mxCell id="ZAoUQ8ObvNrSKgbO1jp7-12" style="edgeStyle=orthogonalEdgeStyle;rounded=0;orthogonalLoop=1;jettySize=auto;html=1;exitX=0.5;exitY=1;exitDx=0;exitDy=0;entryX=0.5;entryY=0;entryDx=0;entryDy=0;endArrow=oval;endFill=1;startArrow=oval;startFill=1;" parent="1" source="ZAoUQ8ObvNrSKgbO1jp7-11" target="ZAoUQ8ObvNrSKgbO1jp7-9" edge="1">
                    <mxGeometry relative="1" as="geometry"/>
                </mxCell>
                <mxCell id="ZAoUQ8ObvNrSKgbO1jp7-13" style="edgeStyle=orthogonalEdgeStyle;rounded=0;orthogonalLoop=1;jettySize=auto;html=1;exitX=0.5;exitY=1;exitDx=0;exitDy=0;entryX=0.5;entryY=0;entryDx=0;entryDy=0;endArrow=oval;endFill=1;" parent="1" source="ZAoUQ8ObvNrSKgbO1jp7-11" target="ZAoUQ8ObvNrSKgbO1jp7-10" edge="1">
                    <mxGeometry relative="1" as="geometry"/>
                </mxCell>
                <mxCell id="ZAoUQ8ObvNrSKgbO1jp7-15" value="Bridge CNI plugin interface&lt;br&gt;&lt;br&gt;&lt;br&gt;bridge: gatewaybridge0" style="rounded=0;whiteSpace=wrap;html=1;fillColor=#dae8fc;strokeColor=#6c8ebf;" parent="1" vertex="1">
                    <mxGeometry x="285" y="610" width="410" height="70" as="geometry"/>
                </mxCell>
                <mxCell id="ZAoUQ8ObvNrSKgbO1jp7-16" style="edgeStyle=orthogonalEdgeStyle;rounded=0;orthogonalLoop=1;jettySize=auto;html=1;exitX=0.5;exitY=1;exitDx=0;exitDy=0;endArrow=oval;endFill=1;startArrow=oval;startFill=1;" parent="1" source="ZAoUQ8ObvNrSKgbO1jp7-10" edge="1">
                    <mxGeometry relative="1" as="geometry">
                        <mxPoint x="645" y="610" as="targetPoint"/>
                    </mxGeometry>
                </mxCell>
                <mxCell id="ZAoUQ8ObvNrSKgbO1jp7-17" style="edgeStyle=orthogonalEdgeStyle;rounded=0;orthogonalLoop=1;jettySize=auto;html=1;exitX=0.5;exitY=1;exitDx=0;exitDy=0;endArrow=oval;endFill=1;startArrow=oval;startFill=1;" parent="1" edge="1">
                    <mxGeometry relative="1" as="geometry">
                        <mxPoint x="334.8" y="550" as="sourcePoint"/>
                        <mxPoint x="334.8" y="610" as="targetPoint"/>
                    </mxGeometry>
                </mxCell>
                <mxCell id="ZAoUQ8ObvNrSKgbO1jp7-24" value="" style="endArrow=none;dashed=1;html=1;dashPattern=1 3;strokeWidth=2;rounded=0;" parent="1" edge="1">
                    <mxGeometry width="50" height="50" relative="1" as="geometry">
                        <mxPoint x="205" y="590" as="sourcePoint"/>
                        <mxPoint x="515" y="590" as="targetPoint"/>
                    </mxGeometry>
                </mxCell>
                <mxCell id="ZAoUQ8ObvNrSKgbO1jp7-26" value="" style="endArrow=none;dashed=1;html=1;dashPattern=1 3;strokeWidth=2;rounded=0;exitX=0.5;exitY=0;exitDx=0;exitDy=0;" parent="1" source="ZAoUQ8ObvNrSKgbO1jp7-30" edge="1">
                    <mxGeometry width="50" height="50" relative="1" as="geometry">
                        <mxPoint x="202.56499999999994" y="609.1" as="sourcePoint"/>
                        <mxPoint x="205" y="590" as="targetPoint"/>
                    </mxGeometry>
                </mxCell>
                <mxCell id="ZAoUQ8ObvNrSKgbO1jp7-30" value="CNI plugin-specific traffic logic" style="rounded=0;whiteSpace=wrap;html=1;fillColor=#d5e8d4;strokeColor=#82b366;" parent="1" vertex="1">
                    <mxGeometry x="155" y="610" width="100" height="60" as="geometry"/>
                </mxCell>
                <mxCell id="ZAoUQ8ObvNrSKgbO1jp7-31" value="Physical interface&lt;div&gt;&lt;br&gt;&lt;/div&gt;&lt;div&gt;&lt;br&gt;&lt;/div&gt;&lt;div&gt;eth: eth0&lt;/div&gt;" style="rounded=0;whiteSpace=wrap;html=1;fillColor=#bac8d3;strokeColor=#23445d;" parent="1" vertex="1">
                    <mxGeometry x="155" y="710" width="100" height="60" as="geometry"/>
                </mxCell>
                <mxCell id="ZAoUQ8ObvNrSKgbO1jp7-32" style="edgeStyle=orthogonalEdgeStyle;rounded=0;orthogonalLoop=1;jettySize=auto;html=1;exitX=0.5;exitY=1;exitDx=0;exitDy=0;entryX=0.5;entryY=0;entryDx=0;entryDy=0;endArrow=oval;endFill=1;startArrow=oval;startFill=1;" parent="1" source="ZAoUQ8ObvNrSKgbO1jp7-30" target="ZAoUQ8ObvNrSKgbO1jp7-31" edge="1">
                    <mxGeometry relative="1" as="geometry"/>
                </mxCell>
                <mxCell id="ZAoUQ8ObvNrSKgbO1jp7-33" value="Bridge CNI plugin&lt;div&gt;&lt;font color=&quot;#000000&quot;&gt;&lt;br&gt;&lt;/font&gt;&lt;br&gt;veth: vethABC&lt;/div&gt;" style="rounded=0;whiteSpace=wrap;html=1;fillColor=#f8cecc;strokeColor=#b85450;" parent="1" vertex="1">
                    <mxGeometry x="285" y="610" width="100" height="60" as="geometry"/>
                </mxCell>
                <mxCell id="ZAoUQ8ObvNrSKgbO1jp7-34" value="Bridge CNI plugin&lt;div&gt;&lt;font color=&quot;#000000&quot;&gt;&lt;br&gt;&lt;/font&gt;&lt;br&gt;veth: vethDEF&lt;/div&gt;" style="rounded=0;whiteSpace=wrap;html=1;fillColor=#f8cecc;strokeColor=#b85450;" parent="1" vertex="1">
                    <mxGeometry x="595" y="610" width="100" height="60" as="geometry"/>
                </mxCell>
            </root>
        </mxGraphModel>
    </diagram>
</mxfile>